<svg width="90" height="89" viewBox="0 0 90 89" fill="none" xmlns="http://www.w3.org/2000/svg">
<rect x="13" y="4.5" width="64" height="64" rx="32" fill="white"/>
<g filter="url(#filter0_d_1625_8956)">
<circle cx="44.9993" cy="36.5003" r="28.5091" fill="url(#paint0_linear_1625_8956)"/>
<circle cx="44.9993" cy="36.5003" r="30.1091" stroke="#E9D7FE" stroke-width="3.2"/>
</g>
<path d="M55.6654 29.0333C55.6654 30.8006 54.2327 32.2333 52.4654 32.2333C50.6981 32.2333 49.2654 30.8006 49.2654 29.0333C49.2654 27.2659 50.6981 25.8333 52.4654 25.8333C54.2327 25.8333 55.6654 27.2659 55.6654 29.0333Z" fill="white"/>
<path fill-rule="evenodd" clip-rule="evenodd" d="M44.9987 47.1666C39.9704 47.1666 37.4562 47.1666 35.8941 45.6045C34.332 44.0424 34.332 41.5282 34.332 36.4999C34.332 31.4716 34.332 28.9574 35.8941 27.3953C37.4562 25.8333 39.9704 25.8333 44.9987 25.8333C46.4907 25.8333 47.7614 25.8333 48.8515 25.8741C48.1129 26.7182 47.6654 27.8235 47.6654 29.0333C47.6654 31.6842 49.8144 33.8333 52.4654 33.8333C53.6751 33.8333 54.7804 33.3857 55.6246 32.6471C55.6654 33.7372 55.6654 35.0079 55.6654 36.4999C55.6654 41.5282 55.6654 44.0424 54.1033 45.6045C52.5412 47.1666 50.027 47.1666 44.9987 47.1666ZM39.6654 41.5666C39.2235 41.5666 38.8654 41.9248 38.8654 42.3666C38.8654 42.8084 39.2235 43.1666 39.6654 43.1666H46.0654C46.5072 43.1666 46.8654 42.8084 46.8654 42.3666C46.8654 41.9248 46.5072 41.5666 46.0654 41.5666H39.6654ZM38.8654 38.6333C38.8654 38.1914 39.2235 37.8333 39.6654 37.8333H49.2654C49.7072 37.8333 50.0654 38.1914 50.0654 38.6333C50.0654 39.0751 49.7072 39.4333 49.2654 39.4333H39.6654C39.2235 39.4333 38.8654 39.0751 38.8654 38.6333Z" fill="white"/>
<defs>
<filter id="filter0_d_1625_8956" x="0.491018" y="-0.00873756" width="89.018" height="89.0181" filterUnits="userSpaceOnUse" color-interpolation-filters="sRGB">
<feFlood flood-opacity="0" result="BackgroundImageFix"/>
<feColorMatrix in="SourceAlpha" type="matrix" values="0 0 0 0 0 0 0 0 0 0 0 0 0 0 0 0 0 0 127 0" result="hardAlpha"/>
<feMorphology radius="15.1273" operator="erode" in="SourceAlpha" result="effect1_dropShadow_1625_8956"/>
<feOffset dy="8"/>
<feGaussianBlur stdDeviation="13.9636"/>
<feColorMatrix type="matrix" values="0 0 0 0 0.541176 0 0 0 0 0.313726 0 0 0 0 0.901961 0 0 0 0.8 0"/>
<feBlend mode="normal" in2="BackgroundImageFix" result="effect1_dropShadow_1625_8956"/>
<feBlend mode="normal" in="SourceGraphic" in2="effect1_dropShadow_1625_8956" result="shape"/>
</filter>
<linearGradient id="paint0_linear_1625_8956" x1="44.9993" y1="7.99121" x2="44.9993" y2="65.0094" gradientUnits="userSpaceOnUse">
<stop stop-color="#4F2ED3"/>
<stop offset="0.9999" stop-color="#4F2ED3" stop-opacity="0.0104167"/>
<stop offset="1" stop-color="#8A50E6" stop-opacity="0"/>
</linearGradient>
</defs>
</svg>
